<?xml version="1.0" encoding="UTF-8" standalone="no"?>
<svg
   xmlns:dc="http://purl.org/dc/elements/1.1/"
   xmlns:cc="http://creativecommons.org/ns#"
   xmlns:rdf="http://www.w3.org/1999/02/22-rdf-syntax-ns#"
   xmlns:svg="http://www.w3.org/2000/svg"
   xmlns="http://www.w3.org/2000/svg"
   xmlns:sodipodi="http://sodipodi.sourceforge.net/DTD/sodipodi-0.dtd"
   xmlns:inkscape="http://www.inkscape.org/namespaces/inkscape"
   width="84.358719mm"
   height="72.850136mm"
   viewBox="0 0 84.358719 72.850136"
   version="1.1"
   id="svg6703"
   inkscape:version="1.0.2 (1.0.2+r75+1)"
   sodipodi:docname="logo.svg"
   inkscape:export-filename="/home/miquel/mounts/crg_hpc/repositories/target_spotter/images/logo.png"
   inkscape:export-xdpi="350"
   inkscape:export-ydpi="350">
  <defs
     id="defs6697" />
  <sodipodi:namedview
     id="base"
     pagecolor="#ffffff"
     bordercolor="#666666"
     borderopacity="1.0"
     inkscape:pageopacity="0.0"
     inkscape:pageshadow="2"
     inkscape:zoom="0.98994949"
     inkscape:cx="209.59659"
     inkscape:cy="441.86561"
     inkscape:document-units="mm"
     inkscape:current-layer="layer1"
     inkscape:document-rotation="0"
     showgrid="false"
     lock-margins="true"
     fit-margin-top="0"
     fit-margin-left="0"
     fit-margin-right="0"
     fit-margin-bottom="0"
     inkscape:window-width="1600"
     inkscape:window-height="1145"
     inkscape:window-x="0"
     inkscape:window-y="27"
     inkscape:window-maximized="1" />
  <metadata
     id="metadata6700">
    <rdf:RDF>
      <cc:Work
         rdf:about="">
        <dc:format>image/svg+xml</dc:format>
        <dc:type
           rdf:resource="http://purl.org/dc/dcmitype/StillImage" />
        <dc:title />
      </cc:Work>
    </rdf:RDF>
  </metadata>
  <g
     inkscape:label="Layer 1"
     inkscape:groupmode="layer"
     id="layer1"
     transform="translate(-80.380194,-55.480574)">
    <g
       id="g7943"
       transform="matrix(3.9359091,0,0,3.9359091,-105.36475,-30.862253)">
      <rect
         style="fill:#000000;fill-opacity:1;stroke:none;stroke-width:0.0246056;stroke-miterlimit:4;stroke-dasharray:none;stroke-opacity:1"
         id="rect851"
         width="21.433096"
         height="18.5091"
         x="47.192387"
         y="21.937201" />
      <ellipse
         style="fill:#ffffff;fill-opacity:1;stroke:none;stroke-width:0.0459737;stroke-miterlimit:4;stroke-dasharray:none;stroke-opacity:1"
         id="path849"
         transform="matrix(0.54093362,0.84106529,-0.85586244,0.51720352,0,0)"
         ry="10.914158"
         rx="7.4649796"
         cy="-31.809294"
         cx="56.778271" />
      <path
         style="fill:#000000;stroke-width:0.105258"
         d="m 51.708525,35.945914 c 0.0033,-0.08684 0.196918,-0.892064 0.430267,-1.789391 l 0.424275,-1.631508 -0.632659,0.431682 c -0.896415,0.611647 -2.395975,1.41034 -2.647931,1.41034 -0.235502,0 -0.708101,-0.985568 -0.749919,-1.563898 -0.04504,-0.622834 0.40075,-0.990915 1.478585,-1.220863 l 0.348498,-0.07435 -0.373335,0.27067 c -0.447278,0.32428 -0.477795,0.544991 -0.167848,1.213989 l 0.197477,0.426244 0.473265,-0.383259 c 0.46568,-0.377116 0.472358,-0.387921 0.416495,-0.674257 -0.03123,-0.16005 -0.302299,-0.890035 -0.602386,-1.622192 -0.300089,-0.732153 -0.516286,-1.397825 -0.480443,-1.47926 0.125386,-0.284876 2.840897,-1.839883 3.212989,-1.839883 0.12185,0 0.312945,0.24974 0.463108,0.605239 0.485701,1.149839 0.350985,1.683488 -0.480549,1.903598 -0.254791,0.06744 -0.547995,0.122626 -0.651561,0.122626 -0.177033,0 -0.170456,-0.01329 0.109823,-0.221768 0.296676,-0.220687 0.296503,-0.224279 -0.03513,-0.736812 -0.372005,-0.574924 -0.630083,-0.642343 -0.976877,-0.255198 -0.267579,0.298712 -0.223753,0.463488 0.561064,2.109303 0.248239,0.520573 0.453921,1.048612 0.457074,1.173423 0.0031,0.12481 0.109076,0.248498 0.235389,0.274866 0.202604,0.04228 0.246257,0.0093 0.370474,-0.279557 0.07729,-0.180124 0.291666,-0.824842 0.476042,-1.432706 0.184379,-0.607868 0.349372,-1.140742 0.366648,-1.18416 0.01712,-0.04342 0.315607,-0.07894 0.662962,-0.07894 0.509891,0 0.61721,0.03258 0.557102,0.169148 -0.05274,0.11981 -0.01099,0.147029 0.143129,0.09331 0.526552,-0.183517 0.572513,-0.151015 0.731092,0.517024 0.158715,0.668616 0.156229,0.685237 -0.200939,1.343426 -0.769654,1.418314 -0.792344,1.447232 -1.352749,1.724079 -0.653103,0.322638 -0.676942,0.321628 -0.740429,-0.03139 -0.05196,-0.288882 -0.05277,-0.287884 -0.405831,0.499977 l -0.353751,0.78944 -0.09764,-0.248495 -0.09764,-0.24849 -0.234422,0.511637 c -0.343991,0.750811 -0.840609,1.588531 -0.833692,1.406335 z m 3.155185,-4.474552 c 0.286654,-0.694117 0.512908,-1.277709 0.5028,-1.296873 -0.0101,-0.01917 -0.140436,0.01802 -0.289622,0.08265 -0.247911,0.107381 -0.31215,0.210426 -0.746799,1.197945 -0.484382,1.100513 -0.517436,1.37238 -0.159121,1.308767 0.143773,-0.02554 0.256005,-0.234929 0.692742,-1.292488 z m 3.628703,2.600337 c -0.189245,-0.09808 -0.385733,-0.216645 -0.436638,-0.263477 -0.06806,-0.06263 0.139622,-0.612646 0.784964,-2.078858 l 0.87751,-1.993694 h -0.36073 -0.360725 l 1.15241,-0.78944 c 0.633822,-0.434188 1.165659,-0.789436 1.181855,-0.789436 0.01619,0 -0.08279,0.254991 -0.219968,0.566649 -0.235043,0.534015 -0.2342,0.569971 0.01468,0.624298 0.227875,0.04975 0.385775,-0.03028 1.151547,-0.583561 l 0.887462,-0.641209 -0.25903,0.588513 c -0.232978,0.529325 -0.236805,0.591891 -0.03808,0.622146 0.324902,0.04946 0.204367,0.40204 -0.137449,0.40204 h -0.26646 l -0.912346,2.003063 c -0.850164,1.866577 -0.904516,2.016999 -0.797666,2.207503 0.181785,0.324038 -0.01854,0.346221 -0.540092,0.05981 l -0.481934,-0.264646 0.914344,-2.002992 0.914345,-2.002996 -0.447405,1.28e-4 -0.447405,1.27e-4 -0.359445,0.815752 c -0.197793,0.448662 -0.621365,1.341776 -0.94139,1.984696 -0.548598,1.102108 -0.574639,1.181853 -0.455489,1.394674 0.214196,0.382598 0.114598,0.41627 -0.416753,0.140907 z m -2.633174,-0.783561 c -0.408762,-0.512282 -0.395551,-0.619548 0.223646,-1.815706 l 0.544877,-1.052583 0.813828,-0.349109 0.813833,-0.349109 0.272935,0.331851 c 0.332151,0.40385 0.303186,0.603066 -0.282599,1.943799 l -0.45947,1.051143 -0.65325,0.288444 c -0.359286,0.158646 -0.731506,0.289551 -0.827151,0.290903 -0.09558,0.0012 -0.296742,-0.15148 -0.446867,-0.339633 z m 1.572919,-1.588495 c 0.268333,-0.703888 0.476887,-1.301802 0.463458,-1.328703 -0.01343,-0.02689 -0.127622,0.0024 -0.25379,0.06517 -0.199793,0.09937 -0.295326,0.275304 -0.741009,1.364639 -0.281409,0.687807 -0.50639,1.28621 -0.499965,1.329784 0.0064,0.04358 0.131321,0.02741 0.277548,-0.03592 0.253699,-0.109891 0.288205,-0.173747 0.753754,-1.39496 z m 4.687948,1.221381 -0.283505,-0.398933 0.41669,-0.929181 c 0.229189,-0.511045 0.483474,-1.017371 0.565146,-1.125163 0.08166,-0.107795 0.466605,-0.372493 0.855436,-0.588223 l 0.706972,-0.392233 0.344029,0.238103 c 0.283667,0.196324 0.331084,0.318942 0.27024,0.698835 -0.04059,0.253408 -0.156425,0.580275 -0.257381,0.726377 -0.176708,0.255675 -0.205412,0.263254 -0.765038,0.201941 l -0.581443,-0.0637 -0.275219,0.723345 c -0.290831,0.764393 -0.291384,1.045398 -0.0015,0.775094 0.0926,-0.08635 0.211512,-0.251741 0.264247,-0.367525 0.05255,-0.115783 0.166146,-0.275972 0.252027,-0.355971 0.122147,-0.113783 0.169769,-0.08211 0.218723,0.145481 0.06089,0.283138 0.05218,0.301155 -0.325105,0.671751 -0.570272,0.56018 -1.025415,0.573146 -1.404302,0.04001 z m 1.975997,-2.264345 c 0.01727,-0.130256 0.02288,-0.352932 0.01247,-0.494829 -0.01807,-0.246275 -0.03062,-0.235513 -0.27608,0.236831 -0.238536,0.458977 -0.239438,0.494829 -0.01247,0.494829 0.205155,0 0.24976,-0.03827 0.27608,-0.236831 z m 0.49368,1.70202 c 0.204005,-0.09457 0.313139,-0.292936 0.920983,-1.673945 l 0.689549,-1.566655 -0.235187,-0.0333 c -0.209424,-0.02968 -0.154011,-0.07702 0.506136,-0.432498 l 0.741322,-0.399191 -0.166749,0.378847 c -0.163057,0.370468 -0.159978,0.375222 0.139311,0.214989 0.450054,-0.240948 0.530952,-0.207101 0.586087,0.245193 0.06935,0.568996 -0.01038,0.68994 -0.654055,0.991958 -0.621466,0.291607 -0.696771,0.291778 -0.413052,7.96e-4 0.131995,-0.135329 0.182928,-0.270781 0.166578,-0.442909 l -0.02355,-0.247962 -0.217993,0.340536 c -0.386652,0.604013 -1.041058,2.457951 -0.919903,2.606105 0.08869,0.108456 -0.02049,0.131009 -0.621609,0.128371 -0.546656,-0.0024 -0.671262,-0.03007 -0.497779,-0.110488 z"
         id="path847"
         inkscape:connector-curvature="0" />
    </g>
  </g>
</svg>
